<svg width="50" height="50" viewBox="0 0 50 50" fill="none" xmlns="http://www.w3.org/2000/svg">
<path d="M39.0625 8.33334C39.9517 8.33334 40.8321 8.50847 41.6536 8.84873C42.4751 9.189 43.2215 9.68774 43.8502 10.3165C44.4789 10.9452 44.9777 11.6916 45.3179 12.5131C45.6582 13.3346 45.8333 14.215 45.8333 15.1042V39.0625C45.8333 39.9517 45.6582 40.8321 45.3179 41.6536C44.9777 42.4751 44.4789 43.2215 43.8502 43.8502C43.2215 44.4789 42.4751 44.9777 41.6536 45.3179C40.8321 45.6582 39.9517 45.8333 39.0625 45.8333H15.1042C14.215 45.8333 13.3346 45.6582 12.5131 45.3179C11.6916 44.9777 10.9452 44.4789 10.3165 43.8502C9.68774 43.2215 9.189 42.4751 8.84873 41.6536C8.50847 40.8321 8.33334 39.9517 8.33334 39.0625V26.0458C9.32084 26.4583 10.3688 26.7542 11.4583 26.925V39.0625C11.4583 39.4958 11.5333 39.9125 11.6729 40.3L23.8042 28.4229C24.6358 27.6088 25.7405 27.1332 26.9034 27.0885C28.0663 27.0438 29.2042 27.4333 30.0958 28.1813L30.3625 28.4229L42.4917 40.3021C42.6313 39.9146 42.7083 39.4979 42.7083 39.0625V15.1042C42.7083 14.1372 42.3242 13.2099 41.6405 12.5262C40.9568 11.8424 40.0294 11.4583 39.0625 11.4583H26.925C26.7592 10.385 26.464 9.33569 26.0458 8.33334H39.0625ZM26.1646 30.5083L25.9896 30.6542L13.8917 42.5021C14.2708 42.6354 14.6792 42.7083 15.1042 42.7083H39.0625C39.4854 42.7083 39.8938 42.6354 40.2708 42.5021L28.1771 30.6563C27.9133 30.3977 27.5663 30.2409 27.1979 30.2138C26.8295 30.1868 26.4634 30.2911 26.1646 30.5083ZM33.8583 15.625C35.1026 15.625 36.296 16.1193 37.1758 16.9992C38.0557 17.879 38.55 19.0724 38.55 20.3167C38.55 21.561 38.0557 22.7543 37.1758 23.6342C36.296 24.514 35.1026 25.0083 33.8583 25.0083C32.614 25.0083 31.4207 24.514 30.5408 23.6342C29.661 22.7543 29.1667 21.561 29.1667 20.3167C29.1667 19.0724 29.661 17.879 30.5408 16.9992C31.4207 16.1193 32.614 15.625 33.8583 15.625ZM13.5417 2.08334C15.0464 2.08334 16.5364 2.37971 17.9266 2.95555C19.3168 3.53138 20.5799 4.3754 21.6439 5.4394C22.7079 6.50341 23.552 7.76657 24.1278 9.15675C24.7036 10.5469 25 12.0369 25 13.5417C25 15.0464 24.7036 16.5364 24.1278 17.9266C23.552 19.3168 22.7079 20.5799 21.6439 21.6439C20.5799 22.7079 19.3168 23.552 17.9266 24.1278C16.5364 24.7036 15.0464 25 13.5417 25C10.5027 25 7.58826 23.7928 5.4394 21.6439C3.29055 19.4951 2.08334 16.5806 2.08334 13.5417C2.08334 10.5027 3.29055 7.58826 5.4394 5.4394C7.58826 3.29055 10.5027 2.08334 13.5417 2.08334ZM33.8583 18.75C33.6526 18.75 33.4489 18.7905 33.2588 18.8693C33.0687 18.948 32.896 19.0634 32.7505 19.2089C32.6051 19.3543 32.4897 19.5271 32.4109 19.7171C32.3322 19.9072 32.2917 20.1109 32.2917 20.3167C32.2917 20.5224 32.3322 20.7261 32.4109 20.9162C32.4897 21.1063 32.6051 21.279 32.7505 21.4245C32.896 21.5699 33.0687 21.6853 33.2588 21.7641C33.4489 21.8428 33.6526 21.8833 33.8583 21.8833C34.2738 21.8833 34.6723 21.7183 34.9661 21.4245C35.2599 21.1307 35.425 20.7322 35.425 20.3167C35.425 19.9012 35.2599 19.5027 34.9661 19.2089C34.6723 18.9151 34.2738 18.75 33.8583 18.75ZM13.5417 6.25L13.3542 6.26459C13.146 6.30261 12.9544 6.40311 12.8048 6.55272C12.6552 6.70233 12.5547 6.89395 12.5167 7.10209L12.5 7.29167V12.5H7.2875L7.1 12.5167C6.89187 12.5547 6.70025 12.6552 6.55064 12.8048C6.40103 12.9544 6.30053 13.146 6.2625 13.3542L6.24584 13.5417L6.2625 13.7292C6.30053 13.9373 6.40103 14.1289 6.55064 14.2785C6.70025 14.4281 6.89187 14.5286 7.1 14.5667L7.2875 14.5833H12.5V19.7979L12.5167 19.9854C12.5547 20.1936 12.6552 20.3852 12.8048 20.5348C12.9544 20.6844 13.146 20.7849 13.3542 20.8229L13.5417 20.8417L13.7292 20.8229C13.9373 20.7849 14.1289 20.6844 14.2785 20.5348C14.4281 20.3852 14.5286 20.1936 14.5667 19.9854L14.5833 19.7979V14.5833H19.8021L19.9896 14.5667C20.1977 14.5286 20.3893 14.4281 20.5389 14.2785C20.6886 14.1289 20.7891 13.9373 20.8271 13.7292L20.8438 13.5417L20.8271 13.3542C20.7889 13.1457 20.6881 12.9539 20.5381 12.8043C20.3881 12.6546 20.196 12.5543 19.9875 12.5167L19.8 12.5H14.5833V7.29167L14.5667 7.10417C14.529 6.89565 14.4287 6.70358 14.2791 6.55357C14.1294 6.40356 13.9376 6.30274 13.7292 6.26459L13.5417 6.25Z" fill="#28293D"/>
</svg>
