<svg width="24" height="24" viewBox="0 0 24 24" fill="none" xmlns="http://www.w3.org/2000/svg">
<rect width="24" height="24" rx="12" fill="#111111"/>
<path d="M10.8457 11.8669C10.8457 11.8669 11.9815 11.7806 11.9815 10.4203C11.9815 9.06115 11.2111 8.39115 10.0337 8.39115L6 8.38477V15.8959H10.1275C10.1275 15.8959 12.1912 15.9613 12.1912 13.6426C12.1912 13.6426 12.3428 11.8669 10.8457 11.8669ZM7.5009 9.51144H9.56464C9.56464 9.51144 10.2708 9.52308 10.2708 10.4394C10.2708 11.3892 9.56464 11.3892 9.56464 11.3892H7.5009V9.51144ZM9.75225 14.7693H7.5009V12.5159H9.75225C9.75225 12.5159 10.8779 12.5276 10.8779 13.6426C10.8779 14.7576 9.91435 14.7693 9.75225 14.7693Z" fill="white"/>
<path d="M15.381 10.2627C12.5619 10.2627 12.5668 13.0794 12.5668 13.0794C12.5668 13.0794 12.3792 15.8961 15.381 15.8961C15.381 15.8961 18.0075 15.8961 18.0075 13.6427H16.5066C16.5066 13.6427 16.5066 14.7694 15.381 14.7694C15.381 14.7694 14.2553 14.7694 14.2553 13.2672C14.2553 13.2672 17.2571 13.2672 18.0075 13.2672C18.0075 12.516 18.0075 10.2627 15.381 10.2627ZM14.2553 12.516C14.2553 12.516 14.2305 11.3894 15.381 11.3894C16.531 11.3894 16.5066 12.516 16.5066 12.516H14.2553Z" fill="white"/>
<path d="M16.8817 9.13574H13.8799V9.88686H16.8817V9.13574Z" fill="white"/>
</svg>
