<svg width="24" height="24" viewBox="0 0 24 24" fill="none" xmlns="http://www.w3.org/2000/svg">
<path d="M16.19 2.00003H7.81C4.17 2.00003 2 4.17003 2 7.81003V16.18C2 19.83 4.17 22 7.81 22H16.18C19.82 22 21.99 19.83 21.99 16.19V7.81003C22 4.17003 19.83 2.00003 16.19 2.00003ZM16.78 9.70003L11.11 15.37C10.97 15.51 10.78 15.59 10.58 15.59C10.38 15.59 10.19 15.51 10.05 15.37L7.22 12.54C6.93 12.25 6.93 11.77 7.22 11.48C7.51 11.19 7.99 11.19 8.28 11.48L10.58 13.78L15.72 8.64003C16.01 8.35003 16.49 8.35003 16.78 8.64003C17.07 8.93003 17.07 9.40003 16.78 9.70003Z" fill="#F0912D"/>
</svg>
