<svg width="25" height="25" viewBox="0 0 25 25" fill="none" xmlns="http://www.w3.org/2000/svg">
<rect x="0.967773" y="0.0185547" width="24" height="24" rx="12" fill="#1B1F23"/>
<path fill-rule="evenodd" clip-rule="evenodd" d="M12.9555 5.52295C9.22859 5.52295 6.20996 8.52957 6.20996 12.2416C6.20996 15.2147 8.14087 17.7258 10.8222 18.616C11.1595 18.6748 11.286 18.4732 11.286 18.2969C11.286 18.1373 11.2775 17.6082 11.2775 17.0455C9.58273 17.3563 9.14427 16.634 9.00936 16.2561C8.93347 16.0629 8.60462 15.4666 8.31794 15.3071C8.08185 15.1811 7.74457 14.8703 8.30951 14.8619C8.84072 14.8535 9.22015 15.349 9.34663 15.5506C9.95373 16.5668 10.9234 16.2813 11.3113 16.1049C11.3703 15.6682 11.5474 15.3742 11.7413 15.2063C10.2404 15.0383 8.67208 14.4588 8.67208 11.8889C8.67208 11.1583 8.93347 10.5536 9.3635 10.0833C9.29604 9.9153 9.05995 9.22663 9.43095 8.30281C9.43095 8.30281 9.99589 8.12645 11.286 8.99148C11.8256 8.84031 12.399 8.76472 12.9724 8.76472C13.5457 8.76472 14.1191 8.84031 14.6587 8.99148C15.9488 8.11805 16.5138 8.30281 16.5138 8.30281C16.8848 9.22663 16.6487 9.9153 16.5812 10.0833C17.0112 10.5536 17.2726 11.1499 17.2726 11.8889C17.2726 14.4672 15.6959 15.0383 14.195 15.2063C14.4395 15.4162 14.6503 15.8194 14.6503 16.4492C14.6503 17.3479 14.6419 18.0701 14.6419 18.2969C14.6419 18.4732 14.7684 18.6832 15.1056 18.616C17.7701 17.7258 19.701 15.2063 19.701 12.2416C19.701 8.52957 16.6824 5.52295 12.9555 5.52295Z" fill="white"/>
</svg>
