<svg width="70" height="70" viewBox="0 0 70 70" fill="none" xmlns="http://www.w3.org/2000/svg">
<path d="M35 7.65625C29.5919 7.65625 24.3053 9.25993 19.8086 12.2645C15.312 15.2691 11.8073 19.5396 9.73768 24.536C7.6681 29.5324 7.1266 35.0303 8.18166 40.3345C9.23673 45.6387 11.841 50.5109 15.6651 54.335C19.4892 58.159 24.3613 60.7633 29.6655 61.8183C34.9697 62.8734 40.4676 62.3319 45.464 60.2623C50.4604 58.1927 54.7309 54.688 57.7355 50.1914C60.7401 45.6947 62.3438 40.4081 62.3438 35C62.3358 27.7504 59.4524 20.8001 54.3262 15.6738C49.1999 10.5476 42.2496 7.66421 35 7.65625ZM35 60.1562C30.0246 60.1562 25.1609 58.6809 21.0239 55.9167C16.887 53.1525 13.6627 49.2236 11.7587 44.6269C9.85465 40.0302 9.35647 34.9721 10.3271 30.0923C11.2978 25.2124 13.6937 20.73 17.2119 17.2118C20.73 13.6937 25.2124 11.2978 30.0923 10.3271C34.9721 9.35646 40.0302 9.85464 44.6269 11.7587C49.2236 13.6627 53.1525 16.887 55.9167 21.0239C58.6809 25.1609 60.1563 30.0246 60.1563 35C60.149 41.6696 57.4963 48.064 52.7802 52.7802C48.064 57.4963 41.6696 60.149 35 60.1562Z" fill="#4ECB71"/>
<path d="M34.8333 55.6667C31.9514 55.6667 29.2431 55.1194 26.7083 54.025C24.1736 52.9306 21.9688 51.4465 20.0938 49.5729C18.2188 47.6979 16.7347 45.4931 15.6417 42.9583C14.5486 40.4236 14.0014 37.7153 14 34.8333C14 31.9514 14.5472 29.2431 15.6417 26.7083C16.7361 24.1736 18.2201 21.9688 20.0938 20.0938C21.9688 18.2188 24.1736 16.7347 26.7083 15.6417C29.2431 14.5486 31.9514 14.0014 34.8333 14C37.7153 14 40.4236 14.5472 42.9583 15.6417C45.4931 16.7361 47.6979 18.2201 49.5729 20.0938C51.4479 21.9688 52.9326 24.1736 54.0271 26.7083C55.1215 29.2431 55.6681 31.9514 55.6667 34.8333C55.6667 37.7153 55.1194 40.4236 54.025 42.9583C52.9306 45.4931 51.4465 47.6979 49.5729 49.5729C47.6979 51.4479 45.4931 52.9326 42.9583 54.0271C40.4236 55.1215 37.7153 55.6681 34.8333 55.6667Z" fill="#4ECB71"/>
</svg>
