<svg width="16" height="17" viewBox="0 0 16 17" fill="none" xmlns="http://www.w3.org/2000/svg">
<g id="Frame" clip-path="url(#clip0_39_430)">
<path id="Vector" d="M4.56642 6.89257H5.5408L5.54192 3.5221L6.69439 0.6346H5.62764L5.01552 2.77929L4.39423 0.628662H3.33917L4.56477 3.52326L4.56642 6.89257ZM12.622 11.8212C12.622 11.5945 12.4355 11.4093 12.207 11.4093H12.1517C11.924 11.4093 11.7375 11.5945 11.7375 11.8212L11.7339 12.3314H12.6121L12.6221 11.8212H12.622ZM6.61642 5.12872C6.61642 5.51385 6.63498 5.80301 6.67427 5.99547C6.71289 6.18769 6.77689 6.35294 6.86808 6.48782C6.95861 6.62291 7.0852 6.72529 7.24933 6.79251C7.41298 6.86085 7.61114 6.89307 7.8468 6.89307C8.05755 6.89307 8.24452 6.85444 8.40773 6.77557C8.56911 6.69719 8.70211 6.57422 8.80542 6.4101C8.90964 6.24369 8.97773 6.06679 9.00886 5.87591C9.04039 5.68551 9.05686 5.38566 9.05686 4.97785V3.86654C9.05686 3.54447 9.03945 3.30541 9.00517 3.14701C8.97136 2.99069 8.90783 2.83797 8.81414 2.68941C8.72177 2.54129 8.5892 2.42107 8.41733 2.32897C8.24636 2.23685 8.04108 2.18997 7.80227 2.18997C7.51792 2.18997 7.28433 2.26222 7.1017 2.40622C6.91842 2.54957 6.79177 2.73994 6.72183 2.97654C6.65211 3.21401 6.61642 3.54335 6.61642 3.96529V5.12872ZM7.4258 3.37147C7.4258 3.12301 7.61117 2.91982 7.83677 2.91982C8.06261 2.91982 8.24636 3.12301 8.24636 3.37147V5.71088C8.24636 5.95979 8.06261 6.16322 7.83677 6.16322C7.61117 6.16322 7.4258 5.95979 7.4258 5.71088V3.37147ZM9.31836 11.2379C9.09527 11.2379 8.91286 11.3878 8.91286 11.5712V14.0516C8.91286 14.2349 9.09523 14.3839 9.31836 14.3839C9.54139 14.3839 9.7243 14.2349 9.7243 14.0516V11.5712C9.7243 11.3878 9.54145 11.2379 9.31836 11.2379ZM9.74805 6.4471C9.79605 6.56366 9.87058 6.65782 9.97114 6.72891C10.0708 6.79885 10.1983 6.83429 10.3506 6.83429C10.4845 6.83429 10.6025 6.79816 10.7058 6.72366C10.8086 6.64938 10.8955 6.53876 10.9659 6.39088L10.9485 6.75476H11.9816V2.36029H11.1679V5.78038C11.1679 5.96572 11.0156 6.11704 10.8291 6.11704C10.6435 6.11704 10.4909 5.96572 10.4909 5.78038V2.36029H9.64108V5.32416C9.64108 5.70176 9.64792 5.95338 9.65933 6.08116C9.67123 6.20782 9.70048 6.32963 9.74802 6.44713L9.74805 6.4471ZM12.4854 7.79291H3.51567C2.31548 7.79291 1.33398 8.71954 1.33398 9.85094V14.5695C1.33398 15.7014 2.31545 16.6276 3.51567 16.6276H12.4854C13.6849 16.6276 14.6669 15.7014 14.6669 14.5695V9.85094C14.6669 8.71954 13.685 7.79291 12.4854 7.79291ZM3.18611 15.0815V10.0973L2.26083 10.0946V9.37051L5.22511 9.37554V10.1115H4.11289L4.11361 15.0815H3.18611ZM7.44705 15.0806L6.70239 15.0797L6.70445 14.5311C6.50423 14.9608 5.70517 15.3069 5.2878 15.0057C5.06423 14.8452 5.07223 14.5641 5.04936 14.3227C5.03727 14.186 5.04733 13.8852 5.0462 13.482L5.04345 10.8517H5.9657L5.96936 13.5245C5.96936 13.8888 5.9497 14.1014 5.97189 14.1718C6.10448 14.5736 6.44345 14.3556 6.51864 14.1494C6.54286 14.0818 6.51955 13.8898 6.51955 13.5058V10.8517H7.44708L7.44705 15.0806ZM8.82877 14.6806L8.7593 15.0335L7.99767 15.0449L8.00227 9.37601L8.92839 9.37413L8.92517 11.0171C9.78005 10.3355 10.4099 10.8402 10.4109 11.6818L10.4127 13.8916C10.4141 14.9617 9.80198 15.5733 8.82873 14.6806L8.82877 14.6806ZM10.9718 13.6013V12.2848C10.9718 11.8893 11.0106 11.578 11.0898 11.3504C11.1679 11.1227 11.3028 10.9531 11.4787 10.8265C12.0405 10.4215 13.1514 10.5472 13.2653 11.339C13.3014 11.5895 13.3133 12.0269 13.3133 12.4649V13.0638H11.721V14.0836C11.721 14.2916 11.8925 14.4603 12.1014 14.4603H12.2376C12.4456 14.4603 12.6171 14.2916 12.6171 14.0836V13.696C12.6175 13.6617 12.6185 13.6302 12.6189 13.6023L13.3142 13.5986C13.6315 15.482 10.9719 15.7915 10.9719 13.6014L10.9718 13.6013Z" fill="black"/>
</g>
<defs>
<clipPath id="clip0_39_430">
<rect width="16" height="16" fill="white" transform="translate(0 0.828125)"/>
</clipPath>
</defs>
</svg>
