<svg width="50" height="50" viewBox="0 0 50 50" fill="none" xmlns="http://www.w3.org/2000/svg">
<path d="M4.16669 12.5C4.16669 10.2899 5.04466 8.17025 6.60746 6.60744C8.17027 5.04464 10.2899 4.16667 12.5 4.16667H37.5C39.7102 4.16667 41.8298 5.04464 43.3926 6.60744C44.9554 8.17025 45.8334 10.2899 45.8334 12.5V37.5C45.8334 39.7101 44.9554 41.8298 43.3926 43.3926C41.8298 44.9554 39.7102 45.8333 37.5 45.8333H12.5C10.2899 45.8333 8.17027 44.9554 6.60746 43.3926C5.04466 41.8298 4.16669 39.7101 4.16669 37.5V12.5Z" stroke="#28293D" stroke-width="4.16667" stroke-linecap="round" stroke-linejoin="round"/>
<path d="M17.7083 22.9167C20.5848 22.9167 22.9167 20.5848 22.9167 17.7083C22.9167 14.8319 20.5848 12.5 17.7083 12.5C14.8319 12.5 12.5 14.8319 12.5 17.7083C12.5 20.5848 14.8319 22.9167 17.7083 22.9167Z" stroke="#28293D" stroke-width="4.16667" stroke-linecap="round" stroke-linejoin="round"/>
<path d="M30.2625 26.2938L12.5 45.8333H37.7771C39.9137 45.8333 41.9629 44.9846 43.4737 43.4737C44.9846 41.9629 45.8333 39.9137 45.8333 37.7771V37.5C45.8333 36.5292 45.4687 36.1563 44.8125 35.4375L36.4167 26.2812C36.0254 25.8544 35.5494 25.5138 35.0191 25.2812C34.4888 25.0486 33.9159 24.929 33.3368 24.9302C32.7578 24.9314 32.1853 25.0533 31.656 25.288C31.1266 25.5228 30.6521 25.8653 30.2625 26.2938Z" stroke="#28293D" stroke-width="4.16667" stroke-linecap="round" stroke-linejoin="round"/>
</svg>
