<svg width="136" height="29" viewBox="0 0 136 29" fill="none" xmlns="http://www.w3.org/2000/svg">
<g id="Group 5985">
<path id="Vector" d="M19.2587 23.9416L1.07701 10.5894C-0.765477 9.23632 -0.139153 6.41911 2.15838 5.75662L21.4822 0.172939C21.8915 0.0156901 22.3302 -0.035356 22.7618 0.0240414C23.1933 0.0834388 23.6054 0.251564 23.9638 0.514466C24.3221 0.777369 24.6164 1.12746 24.8221 1.53569C25.0278 1.94392 25.1392 2.39851 25.1469 2.86174L24.0017 21.7966C23.8659 24.0441 21.1011 25.2947 19.2587 23.9416Z" fill="#E9327C"/>
<path id="Vector_2" d="M13.4884 27.2379L2.77698 4.93663C2.53213 4.42645 2.42439 3.85417 2.46562 3.28293C2.50686 2.71169 2.69549 2.16367 3.01069 1.69932C3.3259 1.23496 3.75544 0.872296 4.25195 0.651322C4.74845 0.430349 5.29264 0.359655 5.82449 0.447041L25.6753 3.70876C26.1323 3.78387 26.5661 3.97339 26.941 4.26174C27.3157 4.55011 27.6209 4.92907 27.8314 5.36746C28.0418 5.80586 28.1515 6.29117 28.1514 6.78351C28.1513 7.27583 28.0415 7.76112 27.831 8.19944L18.6864 27.2389C18.4409 27.7477 18.0683 28.1745 17.6097 28.4724C17.1511 28.7704 16.6243 28.928 16.0871 28.9278C15.5499 28.9277 15.0231 28.77 14.5646 28.4719C14.1061 28.1736 13.7337 27.7467 13.4884 27.2379Z" fill="#1DACE3"/>
<path id="Vector_3" d="M25.1 3.61258L15.2045 1.98657L3.05505 5.49863L7.90451 15.5989L19.2604 23.9415C19.511 24.1235 19.7865 24.2629 20.0773 24.3547L24.3906 15.3744L25.1 3.61258Z" fill="#001A49"/>
<path id="Vector_4" d="M75.2205 6.21929C75.2205 5.8277 75.3295 5.44491 75.5338 5.11931C75.7382 4.79372 76.0287 4.53995 76.3685 4.39009C76.7083 4.24024 77.0822 4.20103 77.443 4.27742C77.8037 4.35382 78.1351 4.5424 78.3952 4.81928C78.6553 5.09618 78.8324 5.44897 78.9041 5.83303C78.9759 6.2171 78.9391 6.6152 78.7983 6.97698C78.6575 7.33876 78.4192 7.64798 78.1134 7.86553C77.8075 8.08308 77.448 8.1992 77.0802 8.1992C76.5884 8.19387 76.1184 7.98356 75.7707 7.61341C75.4231 7.24324 75.2254 6.74274 75.2205 6.21929ZM75.5306 9.16702H78.6308V20.1661H75.5306V9.16702Z" fill="#181817"/>
<path id="Vector_5" d="M92.0208 14.6667C92.0568 15.3937 91.9574 16.1212 91.7285 16.8072C91.4994 17.4931 91.1453 18.1242 90.6865 18.664C90.2276 19.2037 89.6731 19.6415 89.0546 19.9524C88.4362 20.2631 87.7662 20.4407 87.0831 20.4748C86.5086 20.5081 85.9343 20.4049 85.4017 20.1728C84.8692 19.9406 84.3919 19.5853 84.0042 19.1326V24.5663H80.905V9.1672H84.0042V10.2009C84.392 9.74823 84.8693 9.39314 85.4019 9.16116C85.9344 8.92924 86.5087 8.82624 87.0831 8.85968C87.7662 8.89365 88.4361 9.07108 89.0545 9.3817C89.673 9.69245 90.2275 10.1302 90.6864 10.6699C91.1453 11.2096 91.4994 11.8405 91.7285 12.5265C91.9574 13.2124 92.0568 13.9397 92.0208 14.6667ZM88.9216 14.6667C88.9094 14.1517 88.7549 13.6521 88.4773 13.2301C88.1997 12.8082 87.8113 12.4828 87.3609 12.2947C86.9104 12.1065 86.4179 12.0641 85.9449 12.1726C85.4719 12.281 85.0394 12.5355 84.7016 12.9043C84.3638 13.2731 84.1357 13.7399 84.0458 14.246C83.9559 14.7522 84.0083 15.2754 84.1963 15.75C84.3843 16.2246 84.6996 16.6297 85.1027 16.9145C85.506 17.1994 85.9791 17.3512 86.4629 17.3512C86.7952 17.3672 87.1268 17.308 87.4361 17.1779C87.7454 17.0477 88.0254 16.8493 88.2576 16.5958C88.4897 16.3423 88.6689 16.0394 88.7834 15.7069C88.8979 15.3744 88.945 15.0199 88.9216 14.6667Z" fill="#181817"/>
<path id="Vector_6" d="M101.584 16.8646C101.584 19.3948 99.5173 20.4727 97.2858 20.4727C96.3843 20.5595 95.479 20.3564 94.687 19.8895C93.8951 19.4227 93.2531 18.7136 92.8438 17.854L95.5294 16.2269C95.6387 16.6243 95.8726 16.9697 96.1924 17.2053C96.512 17.441 96.898 17.5526 97.2858 17.5217C98.0297 17.5217 98.4006 17.2789 98.4006 16.8398C98.4006 15.6292 93.3181 16.2679 93.3181 12.4613C93.3181 10.0638 95.2183 8.8543 97.3719 8.8543C98.1798 8.8273 98.9795 9.03137 99.6876 9.44525C100.397 9.85914 100.988 10.4677 101.4 11.2075L98.7563 12.7256C98.6407 12.4369 98.4477 12.1908 98.2016 12.0182C97.9553 11.8454 97.6668 11.7538 97.3719 11.7546C96.8348 11.7546 96.5044 11.9704 96.5044 12.3707C96.5014 13.6331 101.584 12.7969 101.584 16.8646Z" fill="#181817"/>
<path id="Vector_7" d="M112.911 9.16711V20.1662H109.812V19.1303C109.455 19.5866 108.999 19.9461 108.486 20.1795C107.973 20.4128 107.414 20.5133 106.857 20.4726C104.77 20.4726 102.994 18.8886 102.994 15.9182V9.16711H106.093V15.437C106.066 15.6992 106.095 15.9643 106.175 16.2138C106.255 16.4632 106.385 16.6912 106.556 16.8818C106.727 17.0723 106.935 17.2208 107.165 17.3169C107.396 17.4132 107.643 17.4546 107.891 17.4385C109.027 17.4385 109.816 16.735 109.816 15.1727V9.16711H112.911Z" fill="#181817"/>
<path id="Vector_8" d="M130.68 13.4118V20.1662H127.58V13.6988C127.58 12.5994 127.084 11.8948 126.093 11.8948C125.059 11.8948 124.481 12.6652 124.481 13.9632V20.1662H121.381V13.6988C121.381 12.5994 120.885 11.8948 119.893 11.8948C118.861 11.8948 118.282 12.6652 118.282 13.9632V20.1662H115.183V9.16714H118.287V10.1749C118.608 9.72616 119.03 9.37031 119.513 9.13974C119.997 8.90927 120.528 8.81147 121.056 8.85533C121.586 8.82772 122.115 8.94688 122.589 9.20124C123.063 9.45555 123.468 9.83632 123.763 10.3065C124.106 9.81463 124.561 9.4234 125.085 9.16963C125.609 8.9158 126.186 8.80767 126.759 8.85533C129.131 8.85965 130.68 10.6626 130.68 13.4118Z" fill="#181817"/>
<path id="Vector_9" d="M133.301 9.09908C134.571 9.09908 135.601 8.00252 135.601 6.64983C135.601 5.29714 134.571 4.20056 133.301 4.20056C132.03 4.20056 131 5.29714 131 6.64983C131 8.00252 132.03 9.09908 133.301 9.09908Z" fill="#F6D88C"/>
<path id="Vector_10" d="M32.9062 4.10767H36.0065V20.1661H32.9062V4.10767ZM37.7618 14.6665C37.7584 13.5133 38.0765 12.3851 38.6757 11.4246C39.275 10.4639 40.1285 9.71427 41.1282 9.27049C42.128 8.82669 43.2288 8.70868 44.2917 8.93142C45.3544 9.15418 46.3312 9.70758 47.0983 10.5218C47.8654 11.3359 48.3883 12.3739 48.6008 13.5047C48.8134 14.6355 48.706 15.8079 48.2923 16.8736C47.8786 17.9393 47.1772 18.8504 46.2769 19.4914C45.3765 20.1324 44.3177 20.4746 43.2345 20.4746C42.5152 20.4827 41.8015 20.3383 41.1351 20.0495C40.4689 19.7608 39.8632 19.3335 39.3537 18.7928C38.8442 18.2521 38.441 17.6087 38.1677 16.9002C37.8943 16.1918 37.7564 15.4324 37.7618 14.6665ZM45.6141 14.6665C45.602 14.169 45.4524 13.6865 45.1839 13.2792C44.9156 12.8719 44.5403 12.5578 44.1051 12.3763C43.6698 12.1949 43.1941 12.154 42.7372 12.259C42.2803 12.3639 41.8627 12.61 41.5364 12.9663C41.2102 13.3227 40.99 13.7735 40.9031 14.2624C40.8164 14.7513 40.8669 15.2566 41.0485 15.7152C41.23 16.1736 41.5345 16.565 41.9239 16.8402C42.3133 17.1155 42.7702 17.2623 43.2376 17.2625C43.5576 17.2723 43.8761 17.2112 44.1729 17.0833C44.4697 16.9556 44.7384 16.7636 44.9621 16.5197C45.1858 16.2758 45.3596 15.9853 45.4725 15.6663C45.5854 15.3473 45.635 15.0068 45.6182 14.6665H45.6141ZM61.0685 9.16378V19.6136C61.0685 23.3091 58.3616 24.8704 55.614 24.8704C54.647 24.9481 53.6784 24.7408 52.8145 24.2712C51.9508 23.8018 51.225 23.088 50.717 22.2085L53.3611 20.5804C53.5745 21.0394 53.9146 21.4181 54.3357 21.6659C54.7568 21.9137 55.2388 22.0186 55.7174 21.9669C56.023 22.0112 56.3339 21.9821 56.6274 21.8814C56.9209 21.7807 57.1894 21.6113 57.4132 21.3854C57.6368 21.1596 57.81 20.8831 57.92 20.5764C58.03 20.2697 58.0738 19.9407 58.0484 19.6136V18.6015C57.6854 19.0741 57.2233 19.4496 56.6995 19.6979C56.1755 19.9462 55.6042 20.0603 55.0313 20.0312C53.6677 19.986 52.374 19.3775 51.4244 18.3346C50.4747 17.2917 49.9437 15.8962 49.9437 14.4437C49.9437 12.9911 50.4747 11.5957 51.4244 10.5527C52.374 9.50981 53.6677 8.90134 55.0313 8.85622C55.6042 8.82704 56.1755 8.94116 56.6995 9.18946C57.2233 9.43773 57.6854 9.81321 58.0484 10.2859V9.16378H61.0685ZM58.0525 14.4432C58.0729 13.9119 57.9436 13.3863 57.6812 12.9339C57.4188 12.4815 57.0353 12.123 56.58 11.9045C56.1247 11.686 55.6184 11.6175 55.1263 11.7078C54.6341 11.7981 54.1786 12.043 53.8182 12.4112C53.4578 12.7793 53.2091 13.2537 53.1041 13.7735C52.999 14.2933 53.0424 14.8346 53.2286 15.3281C53.4148 15.8214 53.7355 16.2441 54.1492 16.5419C54.5629 16.8397 55.0509 16.9989 55.5502 16.9993C55.8758 17.0236 56.2027 16.9751 56.5097 16.857C56.8166 16.7388 57.097 16.5535 57.3327 16.313C57.5683 16.0727 57.7542 15.7823 57.8781 15.4609C58.0021 15.1393 58.0615 14.7937 58.0525 14.4464V14.4432ZM62.8239 14.659C62.8205 13.5058 63.1386 12.3775 63.7378 11.417C64.3371 10.4564 65.1906 9.70672 66.1903 9.26294C67.1901 8.81914 68.2909 8.70113 69.3538 8.92387C70.4165 9.14662 71.3932 9.70003 72.1604 10.5142C72.9275 11.3283 73.4504 12.3664 73.6629 13.4971C73.8755 14.6279 73.7681 15.8003 73.3544 16.866C72.9407 17.9317 72.2393 18.8428 71.3389 19.4838C70.4386 20.1248 69.3798 20.4671 68.2966 20.4671C67.5779 20.4752 66.8648 20.3309 66.1989 20.0426C65.5331 19.7544 64.9277 19.3278 64.4184 18.7879C63.9089 18.248 63.5056 17.6055 63.2319 16.8979C62.9581 16.1903 62.8194 15.4317 62.8239 14.6665V14.659ZM70.6762 14.659C70.6643 14.1613 70.5147 13.6783 70.2463 13.2706C69.9778 12.8629 69.6024 12.5486 69.167 12.3669C68.7315 12.1852 68.2555 12.1443 67.7983 12.2493C67.3411 12.3542 66.9232 12.6004 66.5968 12.9569C66.2704 13.3135 66.0499 13.7646 65.9632 14.2538C65.8763 14.743 65.927 15.2487 66.1087 15.7074C66.2905 16.1662 66.5953 16.5576 66.985 16.833C67.3748 17.1082 67.832 17.255 68.2996 17.255C68.6188 17.2639 68.9361 17.2028 69.2319 17.0751C69.5278 16.9475 69.7956 16.7561 70.0188 16.5131C70.2419 16.2701 70.4155 15.9806 70.5286 15.6629C70.6418 15.3451 70.692 15.0059 70.6762 14.6665V14.659Z" fill="#181817"/>
</g>
</svg>
