<svg width="24" height="24" viewBox="0 0 24 24" fill="none" xmlns="http://www.w3.org/2000/svg">
<rect width="24" height="24" rx="12" fill="black"/>
<path d="M12.864 12.321C12.864 14.3758 11.1703 16.0443 9.07212 16.0443C6.97397 16.0443 5.28027 14.3758 5.28027 12.321C5.28027 10.2662 6.97397 8.59766 9.07212 8.59766C11.1703 8.59766 12.864 10.2662 12.864 12.321ZM17.0182 12.321C17.0182 14.2525 16.1671 15.8224 15.1222 15.8224C14.0774 15.8224 13.2263 14.2525 13.2263 12.321C13.2263 10.3894 14.0774 8.81957 15.1222 8.81957C16.1671 8.81957 17.0182 10.3812 17.0182 12.321ZM18.7203 12.321C18.7203 14.0552 18.4254 15.4607 18.0546 15.4607C17.6838 15.4607 17.3889 14.0552 17.3889 12.321C17.3889 10.5867 17.6838 9.18122 18.0546 9.18122C18.4254 9.18122 18.7203 10.5867 18.7203 12.321Z" fill="white"/>
</svg>
