<svg width="24" height="24" viewBox="0 0 24 24" fill="none" xmlns="http://www.w3.org/2000/svg">
<rect width="24" height="24" fill="#7E7D7D"/>
<g id="Blog singel" clip-path="url(#clip0_9_1983)">
<rect width="1440" height="3657" transform="translate(-322 -2982)" fill="white"/>
<g id="Frame">
<g id="Frame 48095647">
<g id="Frame 48095646">
<g id="Frame 48095645">
<g id="Frame 48095644">
<g id="Frame 48095625">
<g id="Social Media / MySpace">
<g id="Group 39">
<rect id="Logo Container" width="24" height="24" rx="12" transform="matrix(1 0 0 -1 0 24)" fill="black"/>
<g id="Group 12">
<path id="Vector" d="M14.9889 13.2372C16.1302 13.2372 17.0589 14.1667 17.0589 15.309C17.0589 16.4513 16.1302 17.3809 14.9889 17.3809C13.8477 17.3809 12.9189 16.4513 12.9189 15.309C12.9189 14.1667 13.8477 13.2372 14.9889 13.2372Z" fill="white"/>
<path id="Vector_2" d="M11.0802 14.158C11.8423 14.158 12.4602 14.7764 12.4602 15.5392C12.4602 16.302 11.8423 16.9204 11.0802 16.9204C10.318 16.9204 9.7002 16.302 9.7002 15.5392C9.7002 14.7764 10.318 14.158 11.0802 14.158Z" fill="white"/>
<path id="Vector_3" d="M8.08945 14.1579C8.72458 14.1579 9.23945 14.6732 9.23945 15.3089C9.23945 15.9446 8.72458 16.46 8.08945 16.46C7.45433 16.46 6.93945 15.9446 6.93945 15.3089C6.93945 14.6732 7.45433 14.1579 8.08945 14.1579Z" fill="white"/>
<path id="Vector_4" d="M14.9895 12.7764C14.1339 12.7764 13.3777 12.3483 12.9195 11.6954V11.8556C12.9195 12.8713 12.0943 13.6973 11.0795 13.6973C10.7654 13.6965 10.4568 13.615 10.1832 13.4606C9.90956 13.3062 9.68014 13.0841 9.51687 12.8156C9.24961 13.3363 8.71325 13.6973 8.08949 13.6973C7.20169 13.6973 6.47949 12.9744 6.47949 12.0858V9.78379C6.47949 9.72274 6.50372 9.66418 6.54686 9.62101C6.58999 9.57784 6.64849 9.55359 6.70949 9.55359H9.23949V8.40256C9.23949 8.34151 9.26372 8.28296 9.30686 8.23978C9.34999 8.19661 9.40849 8.17236 9.46949 8.17236H12.4595V6.56093C12.4595 6.49987 12.4837 6.44132 12.5269 6.39815C12.57 6.35498 12.6285 6.33072 12.6895 6.33072H17.2895C17.3505 6.33072 17.409 6.35498 17.4521 6.39815C17.4953 6.44132 17.5195 6.49987 17.5195 6.56093V10.2442C17.5195 11.6406 16.3847 12.7764 14.9895 12.7764Z" fill="white"/>
</g>
</g>
</g>
</g>
</g>
</g>
</g>
</g>
</g>
</g>
<defs>
<clipPath id="clip0_9_1983">
<rect width="1440" height="3657" fill="white" transform="translate(-322 -2982)"/>
</clipPath>
</defs>
</svg>
