<svg width="22" height="22" viewBox="0 0 22 22" fill="none" xmlns="http://www.w3.org/2000/svg">
<g id="Group 237605">
<path id="Vector" d="M3.72727 13.5C5.2335 13.5 6.45455 12.3807 6.45455 11C6.45455 9.61929 5.2335 8.5 3.72727 8.5C2.22104 8.5 1 9.61929 1 11C1 12.3807 2.22104 13.5 3.72727 13.5Z" stroke="#121416" stroke-width="1.5" stroke-linecap="round" stroke-linejoin="round"/>
<path id="Vector_2" d="M18.2732 6C19.7794 6 21.0004 4.88071 21.0004 3.5C21.0004 2.11929 19.7794 1 18.2732 1C16.7669 1 15.5459 2.11929 15.5459 3.5C15.5459 4.88071 16.7669 6 18.2732 6Z" stroke="#121416" stroke-width="1.5" stroke-linecap="round" stroke-linejoin="round"/>
<path id="Vector_3" d="M18.2732 21C19.7794 21 21.0004 19.8807 21.0004 18.5C21.0004 17.1193 19.7794 16 18.2732 16C16.7669 16 15.5459 17.1193 15.5459 18.5C15.5459 19.8807 16.7669 21 18.2732 21Z" stroke="#121416" stroke-width="1.5" stroke-linecap="round" stroke-linejoin="round"/>
<path id="Vector_4" d="M6.10449 12.2256L15.8965 17.2745M15.8965 4.72559L6.10449 9.77454" stroke="#121416" stroke-width="1.5" stroke-linecap="round" stroke-linejoin="round"/>
</g>
</svg>
