<svg width="100" height="20" viewBox="0 0 100 20" fill="none" xmlns="http://www.w3.org/2000/svg">
<path d="M9.28671 2.19529C9.51122 1.5043 10.4888 1.5043 10.7133 2.19529L12.0768 6.39159C12.1772 6.70061 12.4651 6.90983 12.79 6.90983H17.2023C17.9288 6.90983 18.2309 7.83954 17.6431 8.26659L14.0736 10.8601C13.8107 11.051 13.7007 11.3896 13.8011 11.6986L15.1646 15.8949C15.3891 16.5859 14.5982 17.1605 14.0104 16.7334L10.4408 14.1399C10.178 13.949 9.82203 13.949 9.55916 14.1399L5.98957 16.7334C5.40179 17.1605 4.61093 16.5859 4.83544 15.8949L6.1989 11.6986C6.29931 11.3896 6.18931 11.051 5.92645 10.8601L2.35686 8.26659C1.76907 7.83954 2.07115 6.90983 2.7977 6.90983H7.20995C7.53487 6.90983 7.82284 6.70061 7.92325 6.39159L9.28671 2.19529Z" fill="#DA9A3B"/>
<path d="M29.2867 2.19529C29.5112 1.5043 30.4888 1.5043 30.7133 2.19529L32.0768 6.39159C32.1772 6.70061 32.4651 6.90983 32.79 6.90983H37.2023C37.9288 6.90983 38.2309 7.83954 37.6431 8.26659L34.0736 10.8601C33.8107 11.051 33.7007 11.3896 33.8011 11.6986L35.1646 15.8949C35.3891 16.5859 34.5982 17.1605 34.0104 16.7334L30.4408 14.1399C30.178 13.949 29.822 13.949 29.5592 14.1399L25.9896 16.7334C25.4018 17.1605 24.6109 16.5859 24.8354 15.8949L26.1989 11.6986C26.2993 11.3896 26.1893 11.051 25.9264 10.8601L22.3569 8.26659C21.7691 7.83954 22.0712 6.90983 22.7977 6.90983H27.21C27.5349 6.90983 27.8228 6.70061 27.9232 6.39159L29.2867 2.19529Z" fill="#DA9A3B"/>
<path d="M49.2867 2.19529C49.5112 1.5043 50.4888 1.5043 50.7133 2.19529L52.0768 6.39159C52.1772 6.70061 52.4651 6.90983 52.79 6.90983H57.2023C57.9288 6.90983 58.2309 7.83954 57.6431 8.26659L54.0736 10.8601C53.8107 11.051 53.7007 11.3896 53.8011 11.6986L55.1646 15.8949C55.3891 16.5859 54.5982 17.1605 54.0104 16.7334L50.4408 14.1399C50.178 13.949 49.822 13.949 49.5592 14.1399L45.9896 16.7334C45.4018 17.1605 44.6109 16.5859 44.8354 15.8949L46.1989 11.6986C46.2993 11.3896 46.1893 11.051 45.9264 10.8601L42.3569 8.26659C41.7691 7.83954 42.0712 6.90983 42.7977 6.90983H47.21C47.5349 6.90983 47.8228 6.70061 47.9232 6.39159L49.2867 2.19529Z" fill="#DA9A3B"/>
<path d="M69.2867 2.19529C69.5112 1.5043 70.4888 1.5043 70.7133 2.19529L72.0768 6.39159C72.1772 6.70061 72.4651 6.90983 72.79 6.90983H77.2023C77.9288 6.90983 78.2309 7.83954 77.6431 8.26659L74.0736 10.8601C73.8107 11.051 73.7007 11.3896 73.8011 11.6986L75.1646 15.8949C75.3891 16.5859 74.5982 17.1605 74.0104 16.7334L70.4408 14.1399C70.178 13.949 69.822 13.949 69.5592 14.1399L65.9896 16.7334C65.4018 17.1605 64.6109 16.5859 64.8354 15.8949L66.1989 11.6986C66.2993 11.3896 66.1893 11.051 65.9264 10.8601L62.3569 8.26659C61.7691 7.83954 62.0712 6.90983 62.7977 6.90983H67.21C67.5349 6.90983 67.8228 6.70061 67.9232 6.39159L69.2867 2.19529Z" fill="#DA9A3B"/>
<path d="M89.2867 2.19529C89.5112 1.5043 90.4888 1.5043 90.7133 2.19529L92.0768 6.39159C92.1772 6.70061 92.4651 6.90983 92.79 6.90983H97.2023C97.9288 6.90983 98.2309 7.83954 97.6431 8.26659L94.0736 10.8601C93.8107 11.051 93.7007 11.3896 93.8011 11.6986L95.1646 15.8949C95.3891 16.5859 94.5982 17.1605 94.0104 16.7334L90.4408 14.1399C90.178 13.949 89.822 13.949 89.5592 14.1399L85.9896 16.7334C85.4018 17.1605 84.6109 16.5859 84.8354 15.8949L86.1989 11.6986C86.2993 11.3896 86.1893 11.051 85.9264 10.8601L82.3569 8.26659C81.7691 7.83954 82.0712 6.90983 82.7977 6.90983H87.21C87.5349 6.90983 87.8228 6.70061 87.9232 6.39159L89.2867 2.19529Z" fill="#F5F5F5"/>
</svg>
