<svg width="16" height="17" viewBox="0 0 16 17" fill="none" xmlns="http://www.w3.org/2000/svg">
<g id="Frame" clip-path="url(#clip0_39_424)">
<path id="Vector" d="M15.9606 5.53748C15.9212 4.69019 15.7833 4.09906 15.5862 3.58675C15.3892 3.05473 15.1133 2.62123 14.6601 2.16803C14.2069 1.71482 13.7734 1.45867 13.2414 1.24192C12.7291 1.04487 12.1576 0.906943 11.2906 0.867534C10.4433 0.828125 10.1675 0.828125 8 0.828125C5.83251 0.828125 5.55665 0.828125 4.70936 0.867534C3.86207 0.906943 3.27094 1.04487 2.75862 1.24192C2.2266 1.43896 1.7931 1.71482 1.3399 2.16803C0.906404 2.62123 0.630542 3.05473 0.413793 3.58675C0.216749 4.09906 0.0788177 4.67049 0.0394089 5.53748C0 6.38478 0 6.66064 0 8.82812C0 10.9956 0 11.2715 0.0394089 12.1188C0.0788177 12.9661 0.216749 13.5572 0.413793 14.0695C0.610837 14.6015 0.8867 15.035 1.3399 15.4882C1.7931 15.9414 2.2266 16.1976 2.75862 16.4143C3.27094 16.6114 3.84236 16.7493 4.70936 16.7887C5.55665 16.8281 5.83251 16.8281 8 16.8281C10.1675 16.8281 10.4433 16.8281 11.2906 16.7887C12.1379 16.7493 12.7291 16.6114 13.2414 16.4143C13.7734 16.2173 14.2069 15.9414 14.6601 15.4882C15.1133 15.035 15.3695 14.6015 15.5862 14.0695C15.7833 13.5572 15.9212 12.9858 15.9606 12.1188C16 11.2715 16 10.9956 16 8.82812C16 6.66064 16 6.38478 15.9606 5.53748ZM14.5025 12.0597C14.4631 12.8478 14.3448 13.2616 14.2266 13.5375C14.0887 13.9119 13.9113 14.168 13.6355 14.4636C13.3596 14.7395 13.0837 14.9168 12.7094 15.0547C12.4335 15.173 12 15.2912 11.2315 15.3306C10.3842 15.37 10.1281 15.37 8 15.37C5.87192 15.37 5.61576 15.37 4.76847 15.3306C3.9803 15.2912 3.5665 15.173 3.29064 15.0547C2.91626 14.9168 2.6601 14.7395 2.36453 14.4636C2.08867 14.1877 1.91133 13.9119 1.7734 13.5375C1.65517 13.2616 1.51724 12.8478 1.49754 12.0597C1.45813 11.2124 1.45813 10.9562 1.45813 8.82812C1.45813 6.70005 1.45813 6.44389 1.49754 5.5966C1.53695 4.80842 1.65517 4.39463 1.7734 4.11877C1.91133 3.74438 2.08867 3.48822 2.36453 3.19266C2.64039 2.9168 2.91626 2.73946 3.29064 2.60152C3.5665 2.4833 4 2.36507 4.76847 2.32566C5.61576 2.28625 5.87192 2.28625 8 2.28625C10.1281 2.28625 10.3842 2.28625 11.2315 2.32566C12.0197 2.36507 12.4335 2.4833 12.7094 2.60152C13.0837 2.73946 13.3399 2.9168 13.6355 3.19266C13.9113 3.46852 14.0887 3.74438 14.2266 4.11877C14.3448 4.39463 14.4631 4.82813 14.5025 5.5966C14.5419 6.44389 14.5419 6.70005 14.5419 8.82812C14.5616 10.9562 14.5419 11.2124 14.5025 12.0597Z" fill="black"/>
<path id="Vector_2" d="M7.99989 4.72961C5.73388 4.72961 3.90137 6.56213 3.90137 8.82814C3.90137 11.0941 5.73388 12.9267 7.99989 12.9267C10.2659 12.9267 12.0984 11.0941 12.0984 8.82814C12.0984 6.56213 10.2659 4.72961 7.99989 4.72961ZM7.99989 11.4882C6.52206 11.4882 5.33979 10.2863 5.33979 8.82814C5.33979 7.3503 6.54176 6.16804 7.99989 6.16804C9.47772 6.16804 10.66 7.37001 10.66 8.82814C10.66 10.306 9.47772 11.4882 7.99989 11.4882Z" fill="black"/>
<path id="Vector_3" d="M12.2761 5.51783C12.8093 5.51783 13.2416 5.08555 13.2416 4.55231C13.2416 4.01907 12.8093 3.58679 12.2761 3.58679C11.7428 3.58679 11.3105 4.01907 11.3105 4.55231C11.3105 5.08555 11.7428 5.51783 12.2761 5.51783Z" fill="black"/>
</g>
<defs>
<clipPath id="clip0_39_424">
<rect width="16" height="16" fill="white" transform="translate(0 0.828125)"/>
</clipPath>
</defs>
</svg>
