<svg width="16" height="17" viewBox="0 0 16 17" fill="none" xmlns="http://www.w3.org/2000/svg">
<g id="Frame">
<path id="Vector" d="M2.50347 1.62817C1.59634 1.62817 1.00275 2.27027 1.00275 3.11396C1.00275 3.9397 1.57959 4.60096 2.46816 4.60096H2.48606C3.41109 4.60096 3.98603 3.9397 3.98603 3.11396C3.96906 2.27027 3.41109 1.62817 2.50347 1.62817ZM1 5.62817H4V15.6591H1V5.62817ZM11.1135 5.38374C9.29241 5.38374 8.47853 6.41333 8.02337 7.13361V7.1678H8.00069C8.00728 7.15664 8.01584 7.14552 8.02337 7.13361V5.63264H5C5.04616 6.62699 5 15.6591 5 15.6591H8.02337V10.3078C8.02337 9.9913 8.04656 9.67636 8.13691 9.44946C8.38466 8.81746 8.94831 8.16242 9.89644 8.16242C11.1372 8.16242 12.0082 9.13296 12.0082 10.5565V15.6591H15.0618V10.1493C15.0618 6.89767 13.3705 5.38374 11.1135 5.38374Z" fill="black"/>
</g>
</svg>
