<svg width="14" height="13" viewBox="0 0 14 13" fill="none" xmlns="http://www.w3.org/2000/svg">
<path d="M7.21941 0.9375C7.44302 0.9375 7.64718 1.06055 7.74441 1.25438L9.41177 4.56563L13.1378 5.09766C13.3566 5.12813 13.5364 5.27578 13.6069 5.47734C13.675 5.68125 13.6191 5.90391 13.4635 6.05156L10.7607 8.63437L11.4 12.2789C11.4364 12.4898 11.3465 12.7055 11.1642 12.8297C10.9843 12.9539 10.7243 12.9703 10.5493 12.8695L7.21941 11.1539L3.8701 12.8695C3.6951 12.9703 3.45691 12.9539 3.27461 12.8297C3.09475 12.7055 3.00482 12.4898 3.01941 12.2789L3.67809 8.63437L0.977982 6.05156C0.820968 5.90391 0.765309 5.68125 0.834336 5.47734C0.903121 5.27578 1.08468 5.12813 1.30319 5.09766L5.02704 4.56563L6.69441 1.25438C6.79406 1.06052 6.99579 0.9375 7.21941 0.9375ZM7.21941 2.78789L5.94336 5.325C5.85829 5.49141 5.69302 5.60859 5.50343 5.63672L2.6276 6.04453L4.71593 8.03906C4.84961 8.16797 4.91038 8.35313 4.87878 8.53359L4.38781 11.3367L6.94475 10.0195C7.11732 9.93047 7.32392 9.93047 7.49406 10.0195L10.051 11.3367L9.56003 8.53359C9.52843 8.35313 9.59163 8.16797 9.72531 8.03906L11.8132 6.04453L8.93781 5.63672C8.74579 5.60859 8.58052 5.49141 8.49788 5.325L7.21941 2.78789Z" fill="white"/>
</svg>
